<?xml version="1.0" standalone="no"?>
<!DOCTYPE svg PUBLIC "-//W3C//DTD SVG 20010904//EN"
 "http://www.w3.org/TR/2001/REC-SVG-20010904/DTD/svg10.dtd">
<svg version="1.0" xmlns="http://www.w3.org/2000/svg"
 width="300.000000pt" height="300.000000pt" viewBox="0 0 300.000000 300.000000"
 preserveAspectRatio="xMidYMid meet">
<metadata>
Created by potrace 1.10, written by Peter Selinger 2001-2011
</metadata>
<g transform="translate(0.000000,300.000000) scale(0.100000,-0.100000)"
fill="#000000" stroke="none">
<path d="M1634 2531 c-46 -28 -90 -87 -115 -154 l-22 -60 -12 45 c-18 71 -61
135 -105 158 -70 35 -170 19 -185 -31 -5 -15 -10 -18 -18 -10 -31 31 -126 -12
-163 -74 -33 -57 -42 -137 -20 -189 21 -50 21 -51 -10 -27 -14 11 -42 24 -62
27 -36 7 -148 -10 -188 -29 -30 -13 -46 -52 -38 -94 5 -28 3 -37 -15 -50 -70
-49 -37 -139 76 -209 31 -19 34 -23 16 -24 -29 0 -83 -47 -99 -87 -8 -18 -14
-49 -14 -69 0 -31 7 -44 45 -78 41 -38 45 -46 45 -87 0 -53 7 -61 93 -109 77
-43 168 -51 244 -22 l52 20 -15 -31 c-41 -78 33 -197 123 -197 l32 0 -45 -107
c-25 -60 -64 -154 -87 -211 l-41 -103 -22 98 c-25 107 -81 247 -146 360 -61
107 -74 100 -48 -27 24 -117 69 -229 142 -349 61 -102 61 -103 48 -144 -15
-51 -71 -164 -116 -235 -37 -57 -39 -62 -24 -62 12 0 49 58 107 166 47 88 50
91 173 137 109 41 200 91 318 176 103 75 129 101 102 101 -21 0 -247 -93 -333
-137 -48 -25 -110 -65 -137 -90 -28 -25 -53 -43 -56 -40 -3 2 34 99 82 213 47
115 90 220 95 233 9 21 11 22 27 8 60 -52 165 -73 211 -41 18 13 28 14 47 5
47 -21 100 -13 148 22 76 56 95 141 51 227 -9 17 -14 30 -12 30 3 0 24 -11 48
-24 89 -49 248 -57 328 -16 58 29 82 62 90 123 8 59 21 83 52 92 27 9 49 56
49 106 0 56 -34 114 -81 137 l-37 19 44 21 c30 15 50 33 61 56 15 33 15 37 -5
83 -15 35 -19 61 -15 95 5 41 3 47 -18 58 -13 7 -37 23 -52 36 -60 50 -152 37
-266 -36 l-62 -41 41 58 c47 65 75 149 65 193 -4 17 -22 42 -41 58 -19 15 -34
36 -34 48 0 35 -32 56 -81 52 -39 -3 -46 0 -61 25 -16 24 -24 27 -70 27 -34 0
-64 -7 -84 -19z m33 -28 c-55 -59 -109 -219 -147 -438 -30 -179 -39 -192 -39
-60 -2 240 58 435 153 503 45 32 66 29 33 -5z m102 13 c9 -11 8 -29 -3 -78
-19 -79 -75 -242 -115 -331 -34 -76 -35 -77 -22 -77 19 0 123 261 151 380 15
63 22 70 71 70 72 0 77 -43 17 -144 -57 -98 -133 -209 -170 -251 -29 -34 -33
-56 -8 -40 21 13 128 163 180 255 29 49 58 90 65 90 22 0 48 -38 42 -62 -13
-51 -392 -488 -423 -488 -20 0 -18 7 14 49 39 49 44 59 34 65 -5 3 -24 -17
-41 -46 -31 -50 -57 -61 -31 -13 7 14 10 28 7 31 -4 4 -14 -8 -22 -27 l-16
-34 5 30 c26 146 79 375 100 440 51 151 124 231 165 181z m-459 -16 c70 -70
145 -370 138 -555 l-3 -90 -18 143 c-30 236 -89 426 -154 494 -26 27 -26 28
-5 28 12 0 31 -9 42 -20z m66 -1 c68 -42 109 -154 99 -271 -10 -124 -16 -132
-32 -43 -23 135 -54 235 -89 286 -35 53 -30 60 22 28z m-131 -7 c59 -41 127
-236 160 -462 8 -58 17 -116 20 -130 l5 -25 -14 26 c-8 14 -27 57 -41 95 -122
320 -165 439 -165 463 0 38 12 49 35 33z m-78 -30 c6 -4 50 -111 98 -237 48
-127 103 -263 121 -304 19 -41 32 -76 30 -79 -3 -2 -16 9 -30 24 -13 16 -28
25 -33 21 -4 -5 1 -15 11 -23 11 -7 18 -16 15 -18 -6 -7 -155 117 -245 204
-100 96 -128 149 -128 240 0 43 5 75 16 95 l17 30 1 -27 c0 -51 48 -178 93
-250 51 -83 151 -197 162 -186 4 4 -16 33 -45 65 -102 111 -176 254 -187 360
-6 50 -5 52 28 72 36 22 56 26 76 13z m809 -211 c-18 -49 -64 -119 -121 -180
-44 -49 -199 -181 -212 -181 -4 0 22 30 58 68 69 70 206 232 255 301 16 21 30
38 32 37 1 -2 -4 -22 -12 -45z m-1005 -78 c27 -14 61 -42 76 -62 l28 -36 -30
21 c-36 26 -126 72 -175 90 l-35 13 44 0 c29 1 59 -8 92 -26z m-81 -17 c93
-38 215 -116 330 -212 58 -48 122 -99 144 -113 21 -14 33 -27 27 -29 -6 -2 -8
-9 -4 -15 4 -7 0 -8 -13 -3 -10 5 -73 28 -139 52 -140 51 -233 97 -313 156
-70 51 -184 167 -176 179 10 17 84 9 144 -15z m1169 -23 c-52 -27 -148 -83
-214 -126 -121 -79 -118 -70 11 28 88 67 167 114 219 131 82 26 76 13 -16 -33z
m157 12 c2 -5 -26 -23 -62 -39 -96 -43 -305 -166 -299 -176 3 -5 40 12 83 37
141 83 282 153 309 153 l28 0 -25 -20 c-39 -30 -187 -112 -270 -148 -69 -31
-363 -142 -376 -142 -32 0 309 227 454 302 91 48 150 60 158 33z m-1306 -170
c89 -65 192 -115 342 -164 70 -24 130 -47 133 -52 12 -19 -265 -2 -415 25
-142 26 -249 81 -290 149 -26 43 -25 50 11 92 27 30 30 40 25 70 -4 20 -4 40
-1 45 4 6 34 -18 68 -53 34 -35 91 -85 127 -112z m1366 56 l1 -58 -46 -31
c-79 -53 -214 -111 -322 -136 -108 -26 -316 -52 -327 -42 -14 14 20 25 138 46
69 11 142 25 163 31 101 25 117 31 113 38 -3 5 -58 -5 -123 -20 -65 -16 -125
-28 -133 -28 -8 0 39 20 105 45 141 52 300 129 370 178 28 19 52 35 55 35 3 1
6 -25 6 -58z m27 -106 c-4 -58 -66 -90 -193 -99 l-75 -6 77 34 c43 18 99 50
125 69 55 41 69 41 66 2z m-760 -107 c37 -44 9 -98 -52 -98 -66 0 -97 41 -70
91 22 42 89 46 122 7z m694 -36 c53 -27 68 -48 27 -38 -69 18 -157 27 -266 29
-64 1 -115 3 -114 4 2 2 43 10 92 18 116 19 207 14 261 -13z m-1355 -2 c20 -6
63 -14 95 -19 46 -7 29 -9 -87 -8 -102 1 -152 -2 -167 -11 -37 -20 -27 6 10
28 35 22 92 26 149 10z m1323 -40 c67 -13 105 -33 105 -56 0 -12 -5 -11 -27 5
-57 41 -134 53 -363 54 -131 0 -195 4 -165 8 71 10 378 3 450 -11z m-879 -12
c9 -9 -195 -28 -301 -28 -58 0 -107 -4 -110 -10 -15 -24 315 -5 445 26 17 3
22 2 15 -5 -13 -13 -147 -47 -216 -55 -30 -4 -125 -11 -212 -16 -134 -7 -164
-12 -195 -30 l-36 -22 -18 22 c-37 45 -11 106 51 118 37 8 569 7 577 0z m793
-9 c124 -15 186 -51 179 -105 -6 -49 -22 -51 -210 -21 -95 16 -213 38 -263 49
-88 20 -241 73 -249 86 -6 11 447 3 543 -9z m-499 -49 c81 -55 258 -143 355
-176 59 -20 101 -28 157 -28 69 -1 78 -3 78 -20 0 -10 -18 -36 -40 -58 -40
-40 -40 -40 -108 -36 -117 6 -201 57 -414 251 -77 70 -108 107 -92 107 3 0 32
-18 64 -40z m-201 13 c-43 -52 -355 -230 -453 -258 -70 -20 -147 -16 -176 10
-31 28 -24 39 33 57 151 47 296 103 288 111 -8 8 -127 -30 -273 -87 l-68 -26
0 23 c0 12 -7 33 -16 46 -14 19 -14 25 -3 32 25 15 112 28 244 34 162 8 240
19 324 49 36 13 77 24 90 25 21 1 22 -1 10 -16z m204 -129 c117 -165 146 -218
153 -282 5 -46 4 -44 -55 66 -34 62 -74 132 -89 155 -65 94 -131 208 -120 205
7 -3 57 -67 111 -144z m-66 18 c65 -120 144 -316 150 -376 4 -41 2 -56 -12
-69 -18 -19 -85 -23 -114 -7 -42 22 -76 178 -86 398 -3 70 -8 138 -11 152 -4
24 -4 25 11 5 9 -11 37 -57 62 -103z m-84 -39 c8 -154 28 -297 51 -361 15 -41
15 -42 -10 -58 -53 -35 -181 11 -205 74 -13 33 -4 107 22 187 36 106 121 305
128 300 5 -2 11 -66 14 -142z m278 108 c37 -12 158 -37 269 -56 112 -19 205
-36 207 -39 10 -9 -31 -57 -54 -62 -35 -9 -111 3 -194 31 -80 28 -319 140
-319 150 0 4 6 4 13 1 6 -2 42 -14 78 -25z m-375 -98 c-68 -157 -90 -231 -91
-305 l0 -68 -30 0 c-48 0 -105 45 -105 82 0 10 33 64 74 120 40 57 97 140 127
186 29 45 56 82 60 82 4 0 -12 -44 -35 -97z m467 -130 c34 -24 89 -52 122 -63
l60 -21 -60 6 c-131 12 -193 51 -294 184 -85 112 -84 114 17 21 51 -47 121
-104 155 -127z m-608 79 c-83 -81 -109 -101 -154 -115 -62 -20 -120 -22 -176
-5 l-40 11 67 13 c70 13 241 94 333 158 28 19 55 35 60 35 6 0 -35 -43 -90
-97z m54 6 c-28 -40 -74 -106 -102 -147 -40 -57 -53 -69 -55 -53 -5 33 26 81
116 180 46 50 86 92 88 92 3 0 -19 -33 -47 -72z m421 -179 c48 -97 58 -125 49
-140 -16 -31 -26 -22 -33 29 -4 26 -24 89 -45 140 -21 50 -37 92 -35 92 3 0
31 -54 64 -121z m-680 -374 c-1 -5 -19 10 -41 35 -28 32 -47 68 -64 123 -40
126 -28 121 41 -18 35 -71 64 -134 64 -140z m17 -83 c41 -87 21 -80 -30 11
-26 46 -47 88 -47 93 1 18 52 -52 77 -104z m533 43 c0 -12 -376 -196 -399
-195 -21 1 146 94 254 142 128 56 145 62 145 53z m-148 -111 c-26 -18 -186
-93 -252 -118 -85 -33 -25 4 95 57 66 29 129 58 140 65 30 17 43 14 17 -4z"/>
<path d="M1076 2012 c-6 -11 216 -180 263 -199 48 -20 50 -8 3 16 -22 11 -73
46 -113 78 -126 100 -147 114 -153 105z"/>
</g>
</svg>
